<!-- icons from svgrepo.com -->
<svg xmlns="http://www.w3.org/2000/svg" style="display:none">
  <symbol id="icon-angular" viewBox="0 0 24 24">
    <path fill="currentColor"
      d="M16.712 17.711H7.288l-1.204 2.916L12 24l5.916-3.373-1.204-2.916ZM14.692 0l7.832 16.855.814-12.856L14.692 0ZM9.308 0 .662 3.999l.814 12.856L9.308 0Zm-.405 13.93h6.198L12 6.396 8.903 13.93Z" />
  </symbol>

  <symbol id="icon-cart" viewBox="0 0 512 512">
    <g>
      <path fill="currentColor"
        d="M507.316,126.733L138.349,97.498l-5.612-31.861c-5.154-29.076-28.294-51.611-57.524-55.942L9.677,0 L4.684,33.717l65.544,9.72c14.676,2.165,26.342,13.504,28.919,28.134l52.95,300.107c4.969,28.168,29.431,48.69,58.044,48.698 h229.728l6.828-34.102H210.142c-12.049,0.017-22.373-8.662-24.454-20.522l-7.42-41.992h283.58L507.316,126.733z"
      />
      <path fill="currentColor"
        d="M223.148,438.658c-20.253,0-36.667,16.426-36.667,36.678c0,20.254,16.414,36.663,36.667,36.663 c20.258,0,36.675-16.409,36.675-36.663C259.823,455.084,243.405,438.658,223.148,438.658z"
      />
      <path fill="currentColor"
        d="M386.068,438.658c-20.257,0-36.666,16.426-36.666,36.678c0,20.254,16.409,36.663,36.666,36.663 c20.258,0,36.68-16.409,36.68-36.663C422.748,455.084,406.327,438.658,386.068,438.658z"
      />
    </g>
  </symbol>

  <symbol id="icon-hamburger" viewBox="0 0 32 28">
    <path fill="currentColor"
      d="M28,10 L4,10 C1.791,10 0,11.79 0,14 C0,16.21 1.791,18 4,18 L28,18 C30.209,18 32,16.21 32,14 C32,11.79 30.209,10 28,10 Z M28,20 L4,20 C1.791,20 0,21.79 0,24 C0,26.21 1.791,28 4,28 L28,28 C30.209,28 32,26.21 32,24 C32,21.79 30.209,20 28,20 Z M4,8 L28,8 C30.209,8 32,6.21 32,4 C32,1.79 30.209,0 28,0 L4,0 C1.791,0 0,1.79 0,4 C0,6.21 1.791,8 4,8 Z" />
  </symbol>

  <symbol id="icon-hamburger-2" viewBox="0 0 20 18">
    <path fill="currentColor"
      d="M19,8 L1,8 C0.448,8 0,8.448 0,9 C0,9.553 0.448,10 1,10 L19,10 C19.552,10 20,9.553 20,9 C20,8.448 19.552,8 19,8 Z M19,16 L1,16 C0.448,16 0,16.448 0,17 C0,17.553 0.448,18 1,18 L19,18 C19.552,18 20,17.553 20,17 C20,16.448 19.552,16 19,16 Z M1,2 L19,2 C19.552,2 20,1.553 20,1 C20,0.448 19.552,0 19,0 L1,0 C0.448,0 0,0.448 0,1 C0,1.553 0.448,2 1,2 Z" />
  </symbol>

  <symbol id="icon-layers" viewBox="0 0 512 512">
    <path fill="currentColor"
      d="M256,381.424 104.628,328.845 0,365.186 256,454.114 512,365.186 407.373,328.845 Z" />
    <path fill="currentColor"
      d="M256,272.235 104.628,219.655 0,255.996 256,344.924 512,255.996 407.373,219.655 Z" />
    <path fill="currentColor" d="M512,146.806 256,57.886 0,146.806 256,235.734 Z" />
  </symbol>

  <symbol id="icon-search" viewBox="0 0 16 16">
    <path fill="currentColor" fill-rule="evenodd"
      d="M12.027 9.92L16 13.95 14 16l-4.075-3.976A6.465 6.465 0 0 1 6.5 13C2.91 13 0 10.083 0 6.5 0 2.91 2.917 0 6.5 0 10.09 0 13 2.917 13 6.5a6.463 6.463 0 0 1-.973 3.42zM1.997 6.452c0 2.48 2.014 4.5 4.5 4.5 2.48 0 4.5-2.015 4.5-4.5 0-2.48-2.015-4.5-4.5-4.5-2.48 0-4.5 2.014-4.5 4.5z" />
  </symbol>

  <symbol id="icon-x" viewBox="0 0 1024 1024">
    <path fill="currentColor"
      d="M512.481 421.906L850.682 84.621c25.023-24.964 65.545-24.917 90.51.105s24.917 65.545-.105 90.51L603.03 512.377 940.94 850c25.003 24.984 25.017 65.507.033 90.51s-65.507 25.017-90.51.033L512.397 602.764 174.215 940.03c-25.023 24.964-65.545 24.917-90.51-.105s-24.917-65.545.105-90.51l338.038-337.122L84.14 174.872c-25.003-24.984-25.017-65.507-.033-90.51s65.507-25.017 90.51-.033L512.48 421.906z" />
  </symbol>
</svg>
